<?xml version="1.0" standalone="no"?><!DOCTYPE svg PUBLIC "-//W3C//DTD SVG 1.1//EN" "http://www.w3.org/Graphics/SVG/1.1/DTD/svg11.dtd"><svg t="1636616158941" class="icon" viewBox="0 0 1024 1024" version="1.1" xmlns="http://www.w3.org/2000/svg" p-id="4530" xmlns:xlink="http://www.w3.org/1999/xlink" width="200" height="200"><defs><style type="text/css"></style></defs><path d="M456.409914 372.021945c12.762675 0 23.205515 10.44284 23.205515 23.205515L479.615429 504.032538c0 12.762675-3.991917 32.855292-8.871041 44.648896 0 0-37.264719 67.329455-84.270289 83.386152-4.030803 1.37737-11.777231 5.235235-21.74935-9.406231-9.973142-14.641465 7.423063-21.804608 20.637016-33.8172 0 0 15.471366-7.955182 22.036899-38.627762l0 0c0-12.637832-10.44284-22.978341-23.205515-22.978341l-25.793456 0c-12.762675 0-23.205515-10.44284-23.205515-23.205515L335.194178 395.22746c0-12.762675 10.44284-23.205515 23.205515-23.205515L456.409914 372.021945zM666.528446 372.021945c12.762675 0 23.205515 10.44284 23.205515 23.205515L689.73396 504.032538c0 12.762675-3.991917 32.855292-8.871041 44.648896 0 0-37.264719 67.329455-84.270289 83.386152-4.030803 1.37737-11.777231 5.235235-21.74935-9.406231-9.973142-14.641465 7.423063-21.804608 20.637016-33.8172 0 0 15.471366-7.955182 22.036899-38.627762l0 0c0-12.637832-10.44284-22.978341-23.205515-22.978341l-25.793456 0c-12.762675 0-23.205515-10.44284-23.205515-23.205515L545.31271 395.22746c0-12.762675 10.44284-23.205515 23.205515-23.205515L666.528446 372.021945z" p-id="4531" fill="#1296db"></path></svg>