<svg xmlns="http://www.w3.org/2000/svg" height="64" width="95"><g fill="#3355FF" fill-rule="evenodd"><path d="M47.18 37.963l41.277-1.99-1.334 4.024 6.098.052 1.14-8.955-44.05-.372zM74.189 44.521l.058 6.735c.06 3.564 1.853 5.305 5.405 5.24l5.173-.098c1.856-.037 3.327-.454 4.445-1.248 1.118-.81 1.85-1.988 2.202-3.538.34-1.558 1.137-3.86 1.526-6.47-.14-.033-6.203-.43-6.203-.43-.204 3.915-.46 4.844-.772 5.539-.322.705-.98 1.06-2.006 1.08l-1.563.03c-1.319.036-1.98-.571-1.989-1.82l.177-9.54s-20.757.44-21.072.45c3.963 16.866-9.673 16.39-9.673 16.39l2.504 6.44s17.474-1.958 14.246-18.494l7.542-.266zM68.567 22.75l-14.873.028-.012 5.138 15.018-.027 9.293.022 12.294.032.01-5.143-12.43-.031-.092-3.887 15.65-.683.014-5.142-15.797.692-.278-10.145-9.3 1.421.27 9.132-17.822.785-.01 5.142 17.975-.792zM10.255 24.507l-.491-4.175h9.235v4.175h-8.744zm23.08-4.175l-.308 4.175h-8.081v-4.175h8.389zm-6.38 18.144l11.959-.408 2.223-6.388-16.191.173v-2.699h7.743l-.005.051h5.915L40.794.47 1.682 2.294l.581 4.767 32.18-1.948-.596 8.114-8.901.741V8.241l-5.974.439.027 5.786-9.828.822-.695-8.603-6.213.376 2.61 22.093H19v2.767l-18.638.2v7.271l16.547-.57c-5.78 7.98-16.907 9.59-16.907 9.59l2.3 9.029S12.968 53.39 19 45.795V62.25l5.947 1.146V44.152c6.356 7.376 18.601 9.875 18.601 9.875l2.35-8.546s-12.819-1.112-18.943-7.005z"></path></g></svg>