<?xml version="1.0" encoding="UTF-8"?>
<svg width="152px" height="162px" viewBox="0 0 152 162" version="1.1" xmlns="http://www.w3.org/2000/svg" xmlns:xlink="http://www.w3.org/1999/xlink">
    <!-- Generator: Sketch 63 (92445) - https://sketch.com -->
    <title>编组备份 7</title>
    <desc>Created with Sketch.</desc>
    <g id="登录首页" stroke="none" stroke-width="1" fill="none" fill-rule="evenodd">
        <g id="编组备份-7">
            <g id="Group-19" fill="#5A91CD">
                <path d="M53.8893467,5.02997771 C60.7630699,0.152423567 68.3019922,-1.17781847 76.5061135,1.03925159 L76.5061135,1.03925159 L76.506,1.058 L77.0030342,0.993749559 C85.8195924,-0.111488224 93.5809072,1.01221415 100.286979,4.36485669 C110.597564,9.51954458 122.072247,12.7204395 128.557937,23.3208057 C135.043628,33.921172 145.853112,48.0965637 145.853112,60.9001433 C145.853112,66.8372238 148.53888,70.6864684 151.008404,79.5235318 C153.86452,89.7439911 150.300629,104.428576 143.524915,115.772627 C136.374026,127.744806 140.864119,137.887901 128.557937,145.536793 C116.251755,153.185685 115.420256,145.370513 103.446674,156.012449 C95.4769562,163.095812 86.4573475,163.894381 76.3878479,158.408157 C69.1073603,162.554486 61.6080239,162.698099 53.8893467,158.839213 C42.2483638,153.019404 38.7560689,156.012449 30.2747813,149.693799 C21.7934938,143.37515 21.2945945,129.241328 6.82651572,114.276105 C-0.932646473,106.250327 -1.18489226,94.898679 1.67122328,84.6782197 C4.14074775,75.8411563 9.32101206,68.0011855 9.32101206,62.0641051 C9.32101206,49.2605255 18.8000982,38.7848694 24.2879901,26.4801306 C29.7758821,14.1753917 43.5787618,12.3463089 53.8893467,5.02997771 Z" id="Combined-Shape"></path>
            </g>
            <g id="Group-20" transform="translate(2.803800, 6.668989)" stroke="#356DAA" stroke-linecap="round" stroke-width="2.85285">
                <path d="M73.557485,147.051211 C70.3401042,149.718807 67.1227233,151.052604 63.9053425,151.052604 C60.6879617,151.052604 57.4705808,149.718807 54.2532,147.051211" id="Path-19-Copy-7"></path>
                <path d="M75.2216475,0 C72.0042667,2.66759566 68.7868858,4.00139349 65.569505,4.00139349 C62.3521242,4.00139349 59.1347433,2.66759566 55.9173625,0" id="Path-19-Copy-8" transform="translate(65.569505, 2.000697) scale(1, -1) translate(-65.569505, -2.000697) "></path>
                <path d="M93.1946025,147.051211 C89.9772217,149.718807 86.7598408,151.052604 83.54246,151.052604 C80.3250792,151.052604 77.1076983,149.718807 73.8903175,147.051211" id="Path-19-Copy-9" transform="translate(83.542460, 149.051908) scale(-1, 1) translate(-83.542460, -149.051908) "></path>
                <path d="M94.858765,0 C91.6413842,2.66759566 88.4240033,4.00139349 85.2066225,4.00139349 C81.9892417,4.00139349 78.7718608,2.66759566 75.55448,0" id="Path-19-Copy-10" transform="translate(85.206623, 2.000697) scale(-1, -1) translate(-85.206623, -2.000697) "></path>
                <path d="M146.059968,67.8647476 C146.059598,68.6653575 151.875851,88.1999443 136.896445,103.71036 C126.910174,114.050637 113.317132,115.557271 96.117319,108.230264" id="Path-29-Copy-3" transform="translate(121.644150, 90.326508) rotate(-15.000000) translate(-121.644150, -90.326508) "></path>
                <line x1="130.566938" y1="109.847779" x2="110.596987" y2="95.5570875" id="Path-30-Copy-3"></line>
                <line x1="34.5209875" y1="40.2997488" x2="19.8169231" y2="39.8948458" id="Path-30-Copy-3备份-10"></line>
                <line x1="74.4727744" y1="34.2262051" x2="54.4909375" y2="46.8496488" id="Path-30-Copy-3备份"></line>
                <line x1="73.0344625" y1="116.635857" x2="50.6871375" y2="128.902033" id="Path-30-Copy-3备份-5" transform="translate(62.098538, 122.709400) scale(1, -1) translate(-62.098538, -122.709400) "></line>
                <line x1="92.6478062" y1="116.189273" x2="74.8174938" y2="104.339908" id="Path-30-Copy-3备份-5" transform="translate(83.851519, 110.532541) scale(1, -1) translate(-83.851519, -110.532541) "></line>
                <line x1="123.910288" y1="126.996608" x2="106.793188" y2="133.665597" id="Path-30-Copy-3备份-8" transform="translate(115.351738, 130.331102) scale(1, -1) translate(-115.351738, -130.331102) "></line>
                <line x1="102.038438" y1="38.3943233" x2="76.0477853" y2="16.3628413" id="Path-30-Copy-3备份-4"></line>
                <line x1="47.8342875" y1="138.190982" x2="34.2802783" y2="130.450191" id="Path-30-Copy-3备份-6" transform="translate(40.782399, 134.022864) scale(1, -1) translate(-40.782399, -134.022864) "></line>
                <line x1="36.4228875" y1="109.758462" x2="12.9139919" y2="103.372309" id="Path-30-Copy-3备份-7" transform="translate(24.646338, 106.468626) scale(1, -1) translate(-24.646338, -106.468626) "></line>
                <line x1="130.546878" y1="46.7007875" x2="115.351737" y2="36.7866205" id="Path-30-Copy-3备份-9" transform="translate(122.584158, 41.877679) scale(1, -1) translate(-122.584158, -41.877679) "></line>
                <line x1="73.6890768" y1="106.987935" x2="73.8886915" y2="146.770345" id="Path-30-Copy-3备份-2" transform="translate(73.788884, 126.879140) rotate(-0.516022) translate(-73.788884, -126.879140) "></line>
                <line x1="75.895993" y1="3.74162763" x2="74.6161374" y2="58.3942427" id="Path-30-Copy-3备份-3" transform="translate(75.256065, 31.067935) rotate(-1.668032) translate(-75.256065, -31.067935) "></line>
                <path d="M127.098065,113.311729 C130.393542,119.490787 130.24817,125.525796 126.66195,131.416754 C123.07573,137.307711 117.70705,140.286056 110.55591,140.351788" id="Path-31-Copy-3" transform="translate(120.010580, 126.831759) rotate(18.000000) translate(-120.010580, -126.831759) "></path>
                <path d="M125.146523,23.6749115 L136.129995,44.0153284 C138.12699,47.349823 138.903599,50.1841434 138.459823,52.5182896 C138.016046,54.8524358 136.666769,56.6247474 134.411993,57.8352244 L127.309934,61.521425" id="Path-32-Copy-3"></path>
                <path d="M105.176573,6.3355397 C105.176573,6.3355397 114.495883,11.670731 115.49438,15.1719503 C116.160045,17.5060965 115.383436,19.8958176 113.164553,22.3411137" id="Path-34-Copy-3"></path>
                <path d="M18.9681582,65.3947163 C18.9680551,66.1954183 30.0427264,85.2214603 21.4379037,99.2273212 C15.7013553,108.564562 9.46841351,114.201169 2.73907846,116.137144" id="Path-29-Copy-4" transform="translate(13.725768, 90.765930) scale(-1, 1) rotate(-4.000000) translate(-13.725768, -90.765930) "></path>
                <path d="M36.3272811,121.444279 C41.2430178,126.143575 42.8077007,131.086128 41.0213297,136.271936 C39.2349586,141.457743 35.9192017,145.13635 31.0740588,147.307756" id="Path-31-Copy-4" transform="translate(36.404797, 134.376017) scale(-1, 1) rotate(35.000000) translate(-36.404797, -134.376017) "></path>
                <path d="M12.6491375,23.6749115 L23.63261,44.0153284 C25.629605,47.349823 26.4062142,50.1841434 25.9624375,52.5182896 C25.5186608,54.8524358 24.1693844,56.6247474 21.9146083,57.8352244 L14.8125487,61.521425" id="Path-32-Copy-4" transform="translate(19.366302, 42.598168) scale(-1, 1) translate(-19.366302, -42.598168) "></path>
                <path d="M35.9474125,6.3355397 C35.9474125,6.3355397 45.2667225,11.670731 46.26522,15.1719503 C46.930885,17.5060965 45.1003062,20.4515667 40.7734837,24.008361" id="Path-34-Copy-4" transform="translate(41.172883, 15.171950) scale(-1, 1) translate(-41.172883, -15.171950) "></path>
                <line x1="19.4959775" y1="82.2191092" x2="5.2317275" y2="79.360971" id="Path-30-Copy-5" transform="translate(12.268758, 80.932947) scale(-1, 1) translate(-12.268758, -80.932947) "></line>
            </g>
            <text id="Review" font-family="PingFangSC-Medium, PingFang SC" font-size="28.5285" font-weight="400" line-spacing="36.1361" letter-spacing="0.649815467" fill="#FFFFFF">
                <tspan x="29.354325" y="93.8662945">Review</tspan>
            </text>
        </g>
    </g>
</svg>