<?xml version="1.0" standalone="no"?><!DOCTYPE svg PUBLIC "-//W3C//DTD SVG 1.1//EN" "http://www.w3.org/Graphics/SVG/1.1/DTD/svg11.dtd"><svg t="1616229314868" class="icon" viewBox="0 0 1258 1024" version="1.1" xmlns="http://www.w3.org/2000/svg" p-id="2116" xmlns:xlink="http://www.w3.org/1999/xlink" width="147.421875" height="120"><defs><style type="text/css"></style></defs><path d="M138.152 259.57c0 142.657 114.308 258.31 255.269 258.31 140.99 0 255.268-115.653 255.268-258.31 0-142.658-114.278-258.283-255.268-258.283-140.961 0-255.269 115.625-255.269 258.282z m628.21 736.694a19.66 19.66 0 0 0 19.514-20.772c-10.679-209.979-182.272-376.92-392.455-376.92C183.237 598.602 11.527 765.513 0.878 975.52a19.749 19.749 0 0 0 19.514 20.743h745.999z" fill="#826AF9" p-id="2117"></path><path d="M736.432 411.063c0 110.446 88.532 200.03 197.69 200.03 109.188 0 197.72-89.584 197.72-200.06 0-110.474-88.532-200.03-197.72-200.03-109.158 0-197.69 89.526-197.69 200.03z m197.69 257.697c-47.572 0-92.657 10.386-133.383 28.994a19.983 19.983 0 0 0-8.426 29.14 486.254 486.254 0 0 1 80.31 250.47 19.515 19.515 0 0 0 19.544 18.9h345.38a19.602 19.602 0 0 0 19.515-20.772c-10.532-171.155-151.054-306.732-322.94-306.732z" fill="#2222DA" p-id="2118"></path></svg>