<?xml version="1.0" standalone="no"?><!DOCTYPE svg PUBLIC "-//W3C//DTD SVG 1.1//EN" "http://www.w3.org/Graphics/SVG/1.1/DTD/svg11.dtd"><svg t="1616244362156" class="icon" viewBox="0 0 1024 1024" version="1.1" xmlns="http://www.w3.org/2000/svg" p-id="2279" xmlns:xlink="http://www.w3.org/1999/xlink" width="120" height="120"><defs><style type="text/css"></style></defs><path d="M717.370027 114.98496c-3.720533 0-5.577387-1.85344-7.43424-3.70688-5.577387-1.85344-7.43424-12.980907-5.577387-20.39808 1.860267-7.417173-18.582187-3.70688-18.582187-3.70688-3.720533 1.85344-7.43424 1.85344-11.15136 0-5.577387-1.85344-9.294507-5.563733-14.86848-3.710293-5.577387 1.856853-7.43424 1.856853-11.15136-1.85344-3.720533-3.70688-1.860267-5.563733-7.43424-7.417174-5.573973-1.85344-7.43424-1.85344-9.291093-9.270613-1.860267-7.417173-9.294507-16.687787-16.725333-14.834347-9.294507 0-16.728747 3.710293-24.1664 9.270614-11.147947 7.417173-18.582187 18.54464-16.725334 24.10496 1.860267 5.563733 5.577387 11.127467-1.856853 12.980906-7.43424 1.85344-13.008213 9.270613-20.445867 9.270614-7.430827 0-14.865067 1.85344-20.442453 5.563733-7.43424 5.563733-5.573973 9.270613-16.725333 11.127467-11.15136 1.85344-20.445867 9.270613-24.159574 18.541226-3.720533 9.270613-7.43424 16.687787-9.294506 24.10496 0 3.70688-1.856853 9.270613-3.71712 12.977494-3.71712 5.563733-5.573973 11.127467-5.573974 18.54464 0 5.563733 1.856853 14.834347-3.71712 16.687786-5.573973 1.85344-1.856853 3.70688-5.573973 3.70688-3.720533 0-5.577387 5.563733-7.43424 11.127467-1.860267 5.563733-3.720533 12.977493-9.294507 12.977493-3.71712 0-7.43424 1.856853-9.291093 5.563734-1.860267 3.70688-3.720533 7.417173-7.43424 9.270613-5.577387 3.710293-5.577387 9.270613-5.577387 16.6912 0 7.41376-1.856853 12.977493-5.573973 18.541227-5.577387 5.563733-7.43424 5.563733-9.291093 14.830933-1.860267 5.563733-1.860267 12.980907-5.577387 18.54464-1.856853 5.563733-5.573973 11.127467-9.291093 16.687787-5.577387 5.563733-7.43424 9.270613-7.43424 12.980906 1.856853 3.70688 1.856853 5.563733 1.856853 9.270614 0 5.563733-1.856853 11.127467-5.573973 14.834346-3.720533 5.563733-7.43424 11.124053-9.294507 16.687787-5.573973 11.127467-5.573973 18.541227-11.15136 24.10496-5.573973 5.563733-3.71712 5.563733-9.291093 14.834347-1.856853 5.563733-3.71712 9.270613-5.573974 14.830933-1.860267 3.710293-1.860267 5.563733-5.577386 7.417173-3.71712 1.856853-3.71712 7.417173-1.856854 11.127467 0 1.85344 1.856853 1.85344 3.71712 3.70688 7.43424 3.710293 5.573973 5.563733 1.856854 5.563733-7.43424 1.85344-13.008213 5.563733-16.725334 11.127467-3.720533 3.70688-5.577387 9.270613-5.577386 16.684373 0 9.274027 0 11.127467-5.573974 9.274027-5.577387-1.856853-9.294507 9.270613-5.577386 18.541227 3.720533 9.270613 7.43424 20.39808 9.294506 31.522133 0 11.127467-1.860267 27.81184 1.856854 31.522133 3.720533 3.70688 5.577387 11.127467 0 9.270614-5.573973-1.85344-5.573973-1.85344-5.573974 5.563733 0 5.563733 0 12.977493-1.860266 18.541227-3.71712 9.270613-3.71712 20.39808-3.71712 29.668693 1.860267 7.417173 3.720533 9.270613 0 12.977493-3.71712 3.710293-5.573973 3.710293-3.71712 7.417174 1.860267 3.710293 1.860267 5.563733 1.860266 9.274026 0 3.70688 1.856853 3.70688 7.43424 5.563734 3.71712 1.85344 9.291093 3.70688 13.008214 3.70688 5.577387 0 7.43424 1.85344 5.577386 7.417173-1.860267 5.563733 0 12.977493 3.71712 16.687787 5.573973 5.563733 9.291093 9.270613 9.291094 14.834346s0 7.417173 1.860266 11.127467c1.856853 3.70688 5.573973 5.56032 5.573974 11.12064 0 5.563733 3.71712 12.980907 7.43424 12.980907s5.573973 3.710293 5.573973 5.563733v1.85344c0 3.70688 1.860267 7.417173 5.577387 11.127467 3.71712 3.70688 7.43424 5.563733 11.15136 9.270613 1.856853 5.563733 1.856853 9.270613-3.720534 7.417173-5.573973-1.856853-7.430827-9.274027-11.147946-5.563733-3.720533 3.70688 7.43424 7.417173 11.15136 11.127467 9.291093 7.41376 20.445867 14.830933 33.450666 20.394666 11.15136 3.70688 20.445867 7.417173 31.597227 12.977494 9.291093 3.710293 16.725333 11.127467 22.299307 18.54464 3.720533 5.563733 9.294507 18.541227 14.86848 20.394666 5.577387 1.856853 9.294507 7.417173 7.43424 12.980907v1.85344c-1.856853 5.563733 0 11.127467 3.720533 14.834347 1.856853 3.710293 3.713707 9.270613 1.856853 12.980906-1.860267 5.563733-3.720533 11.127467 1.856854 16.687787 3.720533 3.70688 7.43424 7.417173 5.577386 12.977493 0 5.563733 3.71712 16.6912 7.43424 11.127467 1.856853-1.85344 3.71712-5.563733 3.71712-9.270613 1.856853-5.563733 7.430827-5.563733 11.147947-1.856854 3.720533 3.710293 5.577387 1.856853 9.294507 9.274027s5.573973 5.563733 9.291093 3.70688c3.720533-1.85344 1.860267-5.563733-1.856853-9.270613-3.720533-3.710293-1.860267-5.563733-1.860267-12.980907s1.860267-9.270613 5.577387-14.834347 1.856853-7.417173 0-14.830933c0-7.417173-1.860267-12.980907-1.860267-20.39808-1.856853-5.563733-1.856853-11.127467-1.856853-16.6912 0-7.41376-1.860267-9.2672-5.577387-16.684373-1.856853-5.563733 0-12.980907 3.720533-18.54464 3.713707-7.41376 5.573973-14.830933 5.573974-22.248107 1.856853-9.274027 3.71712-20.39808 5.573973-29.668693 1.860267-11.127467 7.43424-22.25152 16.725333-31.522134 5.577387-5.563733 5.577387-11.127467 14.86848-12.980906 9.294507-1.85344 11.15136-3.70688 11.15136-9.270614 0-3.70688 1.860267-7.417173 3.720534-9.270613 1.856853-3.710293 3.713707-9.270613 1.856853-12.980907-1.860267-5.563733 1.856853-11.127467 5.573973-14.834346 3.720533-3.70688 5.577387-7.41376 7.43424-12.977494 1.860267-3.710293 0-5.563733 5.577387-11.127466l5.573973-5.563734c3.720533-5.56032 5.577387-14.830933 5.577387-22.248106 0-11.127467 5.573973-12.980907 9.291093-18.541227 3.71712-5.563733 3.71712-12.980907 1.856854-18.54464-1.856853-3.70688-1.856853-9.270613 0-14.834347 1.860267-3.70688 3.720533-9.270613 3.720533-14.830933 0-3.710293 1.856853-3.710293 3.713707-11.127467 3.720533-5.563733 3.720533-11.127467 3.720533-16.687786 0-5.563733 0-11.127467 1.856853-16.6912 1.856853-7.41376 1.856853-12.977493 0-20.394667-1.860267-9.270613 0-20.394667 1.856854-29.66528 1.860267-7.417173 3.720533-12.980907 3.720533-20.39808v-25.9584c0-16.6912 1.856853-22.25152 1.856853-31.522133 0-9.270613 1.856853-16.6912 3.71712-24.10496 1.856853-7.417173-3.720533-11.127467-7.43424-16.6912-3.720533-5.56032 3.71712-11.124053 7.43424-14.830934 3.71712-3.710293 5.573973-9.270613 7.43424-14.834346 1.856853-5.563733 3.71712-7.417173 7.43424-12.980907s7.43424-11.127467 9.291094-18.541227c3.71712-9.270613 7.43424-18.541227 9.291093-27.815253 0-5.563733 1.860267-11.124053 5.577387-14.830933 3.71712-3.710293 3.71712-9.274027 1.856853-12.980907v-12.980907c0-3.70688 0-9.270613-1.856853-12.977493-3.720533-5.563733-7.43424-11.127467-9.294507-18.54464C691.350187 196.573867 689.493333 183.59296 689.493333 170.612053c1.856853-12.977493 5.573973-25.9584 14.865067-35.229013 3.720533-5.563733 7.43424-9.270613 13.011627-12.980907v-7.417173z" fill="#0266DD" p-id="2280"></path></svg>