<?xml version="1.0" standalone="no"?><!DOCTYPE svg PUBLIC "-//W3C//DTD SVG 1.1//EN" "http://www.w3.org/Graphics/SVG/1.1/DTD/svg11.dtd"><svg t="1616083086042" class="icon" viewBox="0 0 1024 1024" version="1.1" xmlns="http://www.w3.org/2000/svg" p-id="3255" xmlns:xlink="http://www.w3.org/1999/xlink" width="120" height="120"><defs><style type="text/css"></style></defs><path d="M232.44288 318.21312l-19.74784 35.98848-44.32384 1.31072c-40.81664 0.88064-44.76416 1.75616-44.76416 9.65632 0 10.97216 11.41248 16.68096 40.81664 20.18816 19.74784 2.19136 23.69536 4.38784 21.9392 10.09152C180.224 411.68896 131.94752 474.0096 100.79232 505.6c-18.87744 18.88256-34.23232 35.11296-34.23232 36.86912 0 1.32096 5.26336 2.64192 12.28288 2.64192 14.48448 0 44.32384-13.16864 64.51712-28.96384 13.60384-10.54208 15.36-10.54208 17.99168-3.95264 1.75616 4.38784 0 21.94432-3.95264 39.05024-3.94752 17.12128-10.53696 47.84128-14.47936 68.46976-6.14912 31.59552-21.0688 79.4368-34.66752 111.46752-3.51232 7.46496-2.19648 8.3456 14.91968 5.7088 35.54816-4.39296 61.0048-28.52352 68.46464-64.512 5.70368-27.648 31.5904-77.67552 50.46784-98.31424 29.40416-32.03584 86.4512-55.296 134.29248-55.296 14.48448 0 14.9248 0.44544 14.9248 17.12128v16.67072l-36.42368 2.19648c-22.82496 1.76128-44.32896 5.7088-56.61696 11.41248-60.56448 26.77248-62.32064 104.0128-2.6368 140.00128 24.13568 14.91968 46.9504 21.05856 96.98816 26.76736l29.40416 3.51232 4.38272-16.6656c2.6368-9.22112 6.14912-28.09344 7.90016-41.70752 3.072-24.57088 3.51232-25.4464 16.23552-25.0112 7.46496 0.44032 27.648 9.216 45.63968 19.30752 37.74464 21.50912 98.29888 45.6448 145.26464 57.49248 48.27136 12.73344 131.65568 15.80544 184.32 6.58432 67.59424-11.85792 131.6608-47.40096 131.6608-72.8576 0-6.5792-5.69856-4.82304-36.42368 10.97216-51.78368 26.77248-91.71968 34.67264-158.42304 31.59552-39.49568-1.74592-63.20128-5.26336-92.60032-14.03904-45.63968-13.1584-102.69696-39.49568-106.19904-48.7168-1.32608-3.072 3.94752-13.1584 10.97728-21.49888 21.49888-24.13568 24.57088-69.34528 6.13888-93.91616-9.216-12.72832-43.008-39.936-49.59232-39.936-5.26336 0-11.41248 15.7952-14.91968 40.81152-3.072 18.87232-2.19648 20.62336 7.45984 24.58112 13.16352 4.81792 34.23744 28.96384 34.23744 39.49568 0 12.7232-13.16864 26.76736-25.02144 26.76736-10.97216 0-64.0768-25.88672-75.47904-37.29408-5.26336-4.83328-5.26336-10.5472-1.31584-31.16544 7.89504-37.30944 6.58432-89.96864-1.75616-101.81632-3.51744-5.26848-16.24064-14.9248-28.08832-20.62848-19.31264-9.6512-27.20768-10.97216-71.09632-10.97216-27.20768 0-66.26304 3.07712-86.89152 6.58432-20.62848 3.51744-37.74464 6.58432-38.18496 6.58432-5.26336 0 0.88064-14.03904 12.28288-27.20768 17.12128-21.0688 29.40928-24.1408 111.47264-27.65312 89.52832-3.94752 142.62784-13.59872 135.60832-25.0112-1.75616-2.19648-40.37632-3.94752-89.088-3.51232-120.24832 0.8704-114.54464 1.31584-114.54464-7.89504 0-4.38784 3.08224-12.29312 7.02464-17.55648 8.34048-12.28288 5.7088-16.23552-19.75296-29.40416l-21.05856-10.53696-19.7632 35.98848z m154.04032 140.8768c5.26848 4.82816 9.216 9.65632 9.216 10.97216 0 1.75616-18.432 6.5792-40.3712 10.53184-39.936 7.46496-74.16832 21.50912-112.78848 45.20448l-19.31264 12.29312 2.19648-28.09344c2.19648-31.59552 5.26336-34.66752 46.95552-51.34336 32.47616-13.17376 99.17952-12.73344 114.10432 0.4352z m-17.11104 154.0352c10.53696 12.72832-5.26336 81.19808-18.432 81.19808-17.99168 0-47.39584-32.91648-47.39584-53.54496 0-9.22112 13.16864-25.45664 23.69536-29.83936 14.91968-6.144 35.98336-4.83328 42.13248 2.18624z m455.0912-312.46336c-3.51744 5.7088-16.67072 21.504-29.40416 35.10784-32.91136 36.4288-45.63456 33.3568-49.152-10.97216-1.31072-14.04416-3.51232-26.77248-4.82304-28.52352-1.76128-1.75616-12.73344 0.87552-24.13568 5.7088L696.32 310.75328l1.31584 24.1408 1.75616 24.57088-21.06368 3.072c-11.41248 1.32096-28.0832 2.63168-37.73952 2.63168-18.432 0-25.89184 8.77568-16.67584 19.74784 4.38784 5.26848 16.67584 6.58432 54.41536 6.58432 26.77248 0 51.7888 2.19648 55.30112 4.38784 12.72832 7.90016-1.75616 19.30752-43.01312 32.91648-21.9392 7.01952-41.68704 14.91968-43.87328 17.55136-2.2016 2.19648-11.41248 45.20448-20.62848 95.24224-13.59872 74.1632-15.35488 92.60032-10.97728 97.86368 7.46496 8.77568 69.34528 28.08832 110.1568 33.792 48.2816 6.58432 120.24832-2.2016 129.46432-16.2304 3.51232-5.2736 12.288-43.01312 19.74784-83.82464 20.18304-111.46752 20.18304-103.57248 3.94752-122.00448-19.30752-21.504-28.08832-25.89696-61.44-28.52864-21.94944-2.19136-28.96384-4.38784-29.83936-10.09152-2.6368-13.16352 17.99168-21.06368 73.28256-27.65312 57.05728-7.01952 86.02112-15.7952 82.5088-25.0112-1.32096-4.38784-12.288-5.26336-41.69728-3.94752-34.66752 1.31584-40.81664 0.44032-43.008-6.13888-1.75616-4.83328 1.75616-12.28288 11.41248-21.94432l14.47936-15.36-25.01632-10.97216c-13.60384-6.144-25.45152-10.97216-26.33728-10.97216-0.8704-0.01024-4.37248 4.3776-8.33536 10.0864z m-38.61504 143.94368c41.25184 8.77568 46.5152 34.67264 7.01952 34.67264-10.53184 0-36.86912 4.82304-58.8032 10.53184-21.9392 5.7088-40.81664 9.216-42.13248 7.90016-5.69856-5.7088-1.31584-27.648 7.45984-35.98336 5.26336-4.82816 10.53184-8.7808 11.84256-8.7808 1.32608-0.4352 12.72832-3.07712 24.58624-6.58432 27.64288-7.45984 24.13568-7.45984 50.02752-1.75616z m31.16032 81.18784c11.41248 11.41248-3.94752 19.74784-45.6448 24.58112-20.62336 2.19648-48.71168 7.89504-62.31552 12.288-31.16032 10.96704-32.48128 10.96704-32.48128 0 0-14.9248 22.81984-35.54816 46.08512-42.13248 26.77248-7.46496 84.70016-4.38272 94.35648 5.26336z m-14.04416 78.55616c1.31584 17.9968-3.51232 24.1408-23.69536 28.96384-27.20768 6.14912-111.47264-3.51232-111.47264-13.1584 0-5.70368 14.47936-17.11616 30.72-24.1408 10.97728-4.81792 27.648-6.58432 59.2384-5.70368l43.88864 0.88576 1.32096 13.15328z m-262.00064-205.38368c-2.6368 13.60384-4.82816 27.20256-4.82816 30.2848 0 3.072 14.48448 15.7952 32.04096 28.0832l31.5904 22.38464 1.32608-14.03904c3.51232-31.60064-11.8528-60.5696-42.56768-82.51392l-12.288-8.77568-5.2736 24.576z" fill="#d81e06" p-id="3256"></path></svg>