<?xml version="1.0" standalone="no"?><!DOCTYPE svg PUBLIC "-//W3C//DTD SVG 1.1//EN" "http://www.w3.org/Graphics/SVG/1.1/DTD/svg11.dtd"><svg t="1636530659010" class="icon" viewBox="0 0 1024 1024" version="1.1" xmlns="http://www.w3.org/2000/svg" p-id="2999" xmlns:xlink="http://www.w3.org/1999/xlink" width="200" height="200"><defs><style type="text/css"></style></defs><path d="M700.542448 709.574421c76.207277-75.642778 108.948181-176.123484 96.529217-266.443219 0 0-10.725469-81.85226 3.38699-119.67365 19.757442-33.305402 9.596472-62.659316-12.418964-84.674752-22.015436-21.450937-51.933848-32.176406-85.23925-12.418963-37.821389 14.112459-120.238148 3.38699-120.238148 3.38699-90.884234-12.418964-191.929438 20.32194-268.136714 95.964719C238.218302 401.922822 205.477398 501.83903 217.896362 592.723264c0 0 10.725469 81.85226-3.38699 119.673649-19.757442 33.305402-9.596472 62.659316 12.418963 84.674752 22.015436 21.450937 51.933848 32.176406 85.23925 12.418963 37.821389-14.112459 120.238148-3.38699 120.238148-3.38699 90.884234 11.854465 191.929438-20.886439 268.136715-96.529217" fill="#FAD841" p-id="3000"></path><path d="M816.829107 430.712238s-4.515987-33.305402-3.951488-67.175303c-3.951488-4.515987-7.338479-13.54796-9.596472-29.918412 14.676957 106.690187-24.273429 225.23484-114.028666 314.425578-84.674752 84.110254-217.896362 127.012128-322.893054 119.109151-6.209482 5.644983-15.805954 15.241455-28.789416 27.095921 40.079383-10.725469 113.464168-1.128997 113.464168-1.128997 90.884234 12.418964 191.929438-20.32194 268.136714-95.964718 77.336273-75.642778 110.077178-176.123484 97.658214-266.44322z m0 0" fill="#FAAC28" p-id="3001"></path><path d="M254.024256 578.610805c1.693495 14.112459 10.16097 88.62624-4.515987 127.576626l-1.693495 3.38699c-12.983462 20.886439-9.596472 41.208379 9.596472 60.401323 19.192944 18.628445 39.514884 22.015436 60.965821 9.596472l3.38699-1.693495c41.208379-15.241455 121.367144-5.644983 129.83462-4.515987 88.62624 11.854465 182.332966-22.015436 251.766262-90.319735 68.868798-68.3043 102.738699-162.011025 90.884234-249.508269v-1.693495c-1.693495-14.112459-10.16097-88.061742 4.515987-127.576626l1.693495-3.38699c12.983462-20.886439 9.596472-41.208379-9.596472-60.401324-19.192944-18.628445-39.514884-22.015436-60.965821-9.031973l-3.38699 1.693495c-39.514884 14.676957-114.028666 6.77398-128.705623 4.515987h-1.693495C507.484013 225.799338 413.777288 259.669239 344.90849 327.973539 276.039691 396.277839 242.169791 489.420066 254.024256 577.481808v1.128997m38.950386 248.379272c-22.579934 0-44.595369-9.596472-63.788313-28.789415-31.611907-31.611907-37.821389-70.562293-16.370452-107.254686 9.596472-27.660419 4.515987-87.497244 1.693495-108.383683v-1.128996c-12.983462-99.351709 25.402426-204.9129 102.738699-281.684675 77.336273-76.771775 183.461963-114.593164 283.378169-101.609702h1.693495c21.450937 2.822492 81.287762 7.902977 109.51268-1.693496 36.692393-20.886439 76.207277-15.241455 107.819184 16.370453 31.611907 31.611907 37.821389 70.562293 16.370452 107.254685-9.596472 27.660419-4.515987 87.497244-1.693495 108.383683v1.128996c12.983462 99.351709-25.402426 204.9129-102.738699 281.684675-77.900772 77.336273-184.026461 115.157663-285.071665 101.609703H445.953693c-38.385888-4.515987-86.368247-5.644983-108.94818 1.693495-14.676957 7.902977-29.353914 12.418964-44.030871 12.418963" fill="#020202" p-id="3002"></path><path d="M503.532525 669.495039c-7.902977 9.031974-21.450937 10.16097-30.482911 2.257993-4.515987-3.38699-6.77398-9.031974-7.338478-14.676957-0.564498-5.644983 1.128997-11.289967 5.080485-15.805954 7.902977-9.031974 21.450937-10.16097 30.48291-2.257993 4.515987 3.38699 6.77398 9.031974 7.338479 14.676957 0 5.644983-1.693495 11.289967-5.080485 15.805954M664.414553 565.062845c-7.902977 9.031974-21.450937 10.16097-30.48291 2.257993-4.515987-3.38699-6.77398-9.031974-7.338479-14.676957-0.564498-5.644983 1.128997-11.289967 5.080485-15.805954 7.902977-9.031974 21.450937-10.16097 30.482911-2.257993 4.515987 3.38699 6.77398 9.031974 7.338479 14.676957 0 6.209482-1.693495 11.854465-5.080486 15.805954M558.853363 632.802646c-7.902977 9.031974-21.450937 10.16097-30.482911 2.257993-4.515987-3.38699-6.77398-9.031974-7.338478-14.676957-0.564498-5.644983 1.128997-11.289967 5.080485-15.805953 7.902977-9.031974 21.450937-10.16097 30.48291-2.257994 4.515987 3.38699 6.77398 9.031974 7.338479 14.676957 0.564498 6.209482-1.128997 11.854465-5.080485 15.805954M542.482911 707.880926c-6.77398 9.596472-20.32194 11.854465-29.918413 5.080485-4.515987-3.38699-7.902977-8.467475-8.467475-14.112458-1.128997-5.644983 0.564498-11.289967 3.951489-15.805954 6.77398-9.596472 20.32194-11.854465 29.918412-5.080485 4.515987 3.38699 7.902977 8.467475 8.467475 14.112458 1.128997 5.644983-0.564498 11.289967-3.951488 15.805954M601.190739 681.349504c-11.289967 9.596472-28.224917 8.467475-37.821389-2.822492-4.515987-5.080485-6.77398-12.418964-6.773981-19.192944 0.564498-7.338479 3.951488-13.54796 9.031974-18.063947 11.289967-9.596472 28.224917-8.467475 37.821389 2.822492 4.515987 5.080485 6.77398 12.418964 6.77398 19.192944-0.564498 6.77398-3.951488 13.54796-9.031973 18.063947M663.850055 647.479603c-7.338479 8.467475-20.32194 9.596472-29.353914 2.257993-3.951488-3.38699-6.77398-8.467475-7.338478-14.112458-0.564498-5.644983 1.128997-10.725469 5.080485-15.241456 7.338479-8.467475 20.32194-9.596472 29.353914-2.257993 3.951488 3.38699 6.77398 8.467475 7.338478 14.112459 0 5.644983-1.693495 11.289967-5.080485 15.241455M703.929438 605.142227c-7.338479 8.467475-19.757442 9.596472-28.224918 2.257994-3.951488-3.38699-6.77398-8.467475-6.77398-13.547961-0.564498-5.080485 1.128997-10.725469 4.515987-14.676957 7.338479-8.467475 19.757442-9.596472 28.224917-2.257993 3.951488 3.38699 6.77398 8.467475 6.77398 13.54796 0.564498 5.644983-1.128997 10.725469-4.515986 14.676957M424.502756 749.089305c-7.338479 8.467475-19.757442 9.596472-28.224917 2.257994-3.951488-3.38699-6.77398-8.467475-6.77398-13.547961-0.564498-5.080485 1.128997-10.725469 4.515987-14.676957 7.338479-8.467475 19.757442-9.596472 28.224917-2.257993 3.951488 3.38699 6.77398 8.467475 6.77398 13.54796s-1.128997 10.725469-4.515987 14.676957M480.952591 729.331863c-7.338479 8.467475-19.757442 9.596472-28.224917 2.257994-3.951488-3.38699-6.77398-8.467475-6.773981-13.547961-0.564498-5.080485 1.128997-10.725469 4.515987-14.676957 7.338479-8.467475 19.757442-9.596472 28.224918-2.257993 3.951488 3.38699 6.77398 8.467475 6.77398 13.54796 0.564498 5.644983-1.128997 10.725469-4.515987 14.676957M621.512679 606.271224c-7.902977 9.596472-22.015436 10.725469-31.611907 2.822492-4.515987-3.951488-7.338479-9.031974-7.902977-15.241456-0.564498-5.644983 1.128997-11.854465 5.080485-16.370452 7.902977-9.596472 22.015436-10.725469 31.611907-2.822492 4.515987 3.951488 7.338479 9.031974 7.902977 15.241456 0.564498 6.209482-1.128997 11.854465-5.080485 16.370452" fill="#FCB72C" p-id="3003"></path><path d="M295.232635 476.436604c-14.112459-4.515987-3.951488-39.514884-7.902977-22.579934-3.38699 15.805954 6.77398-11.854465 8.467475-16.370452 18.063947-37.821389 42.337376-72.820287 72.255789-102.1742 24.273429-24.273429 51.36935-44.595369 81.287762-60.965822 7.338479-3.951488 16.370452-1.128997 20.32194 5.644984 1.693495 3.38699 2.257993 7.338479 1.128997 11.289967s-3.951488 6.77398-7.338479 9.031973c-27.095921 15.241455-52.498346 33.869901-74.513781 55.885336-27.660419 27.095921-49.675854 58.707828-66.610805 93.706726-2.257993 5.080485-5.644983 24.837927-11.289967 24.273429m205.477398-221.283352c3.951488 3.38699 6.209482 7.902977 6.77398 12.983462 0.564498 5.080485-1.128997 10.16097-4.515987 14.112459-6.77398 8.467475-19.192944 9.031974-27.660419 2.257993-3.951488-3.38699-6.209482-7.902977-6.77398-13.54796-0.564498-5.080485 1.128997-10.16097 4.515987-14.112459 6.77398-7.338479 19.192944-8.467475 27.660419-1.693495" fill="#FEFEFE" p-id="3004"></path></svg>