<?xml version="1.0" standalone="no"?><!DOCTYPE svg PUBLIC "-//W3C//DTD SVG 1.1//EN" "http://www.w3.org/Graphics/SVG/1.1/DTD/svg11.dtd"><svg t="1616142535344" class="icon" viewBox="0 0 1024 1024" version="1.1" xmlns="http://www.w3.org/2000/svg" p-id="1604" xmlns:xlink="http://www.w3.org/1999/xlink" width="120" height="120"><defs><style type="text/css"></style></defs><path d="M512 25.6c139.4432 0 265.9072 58.368 353.4592 152.3968l3.2256 3.2512C949.76 272.0512 998.4 385.536 998.4 512c0 78.464-18.7392 151.936-51.5328 217.344a229.4272 229.4272 0 0 0-24.4736-116.608c5.5808-22.1952 9.3696-45.0048 11.1616-68.3008h-63.872A229.5296 229.5296 0 0 0 716.8 486.4a229.4784 229.4784 0 0 0-149.1456 54.784h-23.2192v22.7328A229.5296 229.5296 0 0 0 486.4 716.8c0 58.6752 21.9136 112.2048 58.0352 152.8832v57.3696c12.8768-4.8128 25.5488-12.6464 37.76-23.2192a229.5552 229.5552 0 0 0 149.376 42.9056A490.6496 490.6496 0 0 1 512 998.4c-139.4432 0-265.9072-58.368-353.4592-152.3968l-3.2256-3.2512C74.24 751.9488 25.6 638.464 25.6 512c0-126.464 48.64-239.9488 126.464-327.5008l3.2512-3.2512C246.0928 83.968 372.5568 25.6 512 25.6z m-32.4352 680.96c-45.3888 3.2512-90.7776 16.2048-129.6896 32.4352 29.184 100.5056 81.0496 168.6016 129.6896 188.0576V706.56z m-188.0576 64.8448c-25.9584 12.9792-45.4144 29.184-68.096 48.64 38.912 35.6864 84.3008 64.8704 132.9408 84.3264-25.9328-35.6864-48.64-81.0752-64.8448-132.9664z m-38.912-226.9696H90.4448c6.5024 84.3008 38.912 165.376 87.552 226.9696 29.184-25.9328 58.368-48.64 94.0544-68.096-9.728-48.64-16.2304-100.5056-19.456-158.8736z m226.9696 3.2256h-161.92l0.896 12.7488c2.944 42.0352 6.4768 79.488 15.104 116.9664 45.4144-19.456 97.28-29.184 145.92-32.4352v-97.28zM846.0032 252.5952c-29.184 25.9328-58.368 48.64-94.0544 68.096 9.728 48.64 16.2304 100.5056 19.456 158.8736h162.1504c-6.5024-84.3008-38.912-165.376-87.552-226.9696z m-155.648 94.0288c-45.4144 19.456-97.28 29.184-145.92 32.4352v100.5056H706.56c-3.2512-48.64-6.4768-90.7776-16.2048-132.9408z m-356.7104 3.2512c-9.728 38.912-12.9536 81.0496-16.2048 129.6896h162.1248v-97.28c-51.8656-3.2256-100.5056-16.2048-145.92-32.4096z m-155.648-97.28c-48.64 61.5936-81.0496 142.6688-87.552 226.9696h162.1504c3.2256-58.368 9.728-110.2336 19.456-158.8736-32.4352-19.456-64.8704-42.1632-94.0544-68.096z m301.568-155.648c-51.8656 19.456-100.5056 87.552-129.6896 188.0576 42.1376 16.2304 84.3008 29.184 129.6896 32.4352V96.9472z m64.8704 0V317.44c45.3888-3.2512 90.7776-12.9792 129.6896-32.4352-29.184-100.5056-77.824-168.6016-129.6896-188.0576zM353.1008 122.88c-45.3888 16.2048-90.7776 45.3888-129.6896 81.0752 19.456 19.456 42.1376 35.6608 64.8448 51.8656 16.2048-51.8656 38.912-97.28 64.8448-132.9408z m314.5472-3.2512c25.9328 35.6864 48.64 81.0752 64.8448 132.9664 22.7072-12.9792 45.4144-32.4352 64.8704-51.8912a439.5008 439.5008 0 0 0-129.7152-81.0752z" p-id="1605" fill="#FA7A20"></path><path d="M910.2592 862.3616l-50.5344-50.4064a160.6912 160.6912 0 0 0 25.728-87.4496A161.152 161.152 0 1 0 563.2 724.48a161.152 161.152 0 0 0 248.704 135.424l50.432 50.304c14.336 14.336 36.7104 15.232 49.92 2.048 13.2096-13.2096 12.288-35.584-1.9968-49.92z m-186.0096-30.2592a107.4944 107.4944 0 0 1-107.4176-107.52 107.4432 107.4432 0 0 1 214.8352 0 107.5456 107.5456 0 0 1-107.4176 107.52z" p-id="1606" fill="#FA7A20"></path></svg>