<?xml version="1.0" standalone="no"?><!DOCTYPE svg PUBLIC "-//W3C//DTD SVG 1.1//EN" "http://www.w3.org/Graphics/SVG/1.1/DTD/svg11.dtd"><svg t="1616133236125" class="icon" viewBox="0 0 1024 1024" version="1.1" xmlns="http://www.w3.org/2000/svg" p-id="1602" xmlns:xlink="http://www.w3.org/1999/xlink" width="120" height="120"><defs><style type="text/css"></style></defs><path d="M61.44 451.271111l342.8864-298.456178c50.249956-43.730489 126.168178-38.929067 170.626844 10.3424l1.450667 1.644089 56.5248 64.9216 66.139022-21.532444c63.391289-20.639289 131.453156 13.5168 153.070934 76.333511l0.648533 1.934222 103.213511 316.831289 1.501867 4.949333c17.362489 61.963378-16.514844 127.123911-77.687467 148.178489l-1.962667 0.654222-437.361777 129.575823L61.44 451.271111zM719.655822 266.126222l-1.564444 0.489245-41.329778 13.454222 118.448356 136.044089 3.316622 3.970844c40.163556 50.215822 34.474667 123.369244-13.511111 166.656l-1.649778 1.467734-247.836445 215.711288 323.299556-105.2672c31.249067-10.171733 48.5376-43.406222 39.241956-74.763377l-0.489245-1.564445-103.213511-316.836978c-10.194489-31.288889-43.406222-48.64-74.712178-39.361422zM446.0032 198.030222l-1.336889 1.132089-296.539022 258.104889 298.359467 342.704356 296.539022-258.104889c24.758044-21.549511 27.716267-58.8288 6.980266-84.064711l-1.137777-1.342578L530.0736 205.141333c-21.589333-24.786489-58.88-27.8016-84.064711-7.111111z" p-id="1603" fill="#1296db"></path><path d="M468.064711 310.6816a30.72 30.72 0 0 1 40.743822 45.988978L393.443556 458.860089l30.060088 33.706667 92.296534-82.807467a30.72 30.72 0 0 1 42.422044 1.325511l0.961422 1.024a30.72 30.72 0 0 1-2.3552 43.383467L464.384 538.424889l62.941867 70.599111a30.72 30.72 0 0 1-1.456356 42.410667l-1.029689 0.961422a30.72 30.72 0 0 1-43.372089-2.486045l-154.390755-173.169777a30.72 30.72 0 0 1 2.56-43.434667z" p-id="1604" fill="#1296db"></path></svg>