<?xml version="1.0" standalone="no"?><!DOCTYPE svg PUBLIC "-//W3C//DTD SVG 1.1//EN" "http://www.w3.org/Graphics/SVG/1.1/DTD/svg11.dtd"><svg t="1613834012032" class="icon" viewBox="0 0 1024 1024" version="1.1" xmlns="http://www.w3.org/2000/svg" p-id="2282" xmlns:xlink="http://www.w3.org/1999/xlink" width="120" height="120"><defs><style type="text/css"></style></defs><path d="M495.616 413.696c0-52.224-31.232-134.144-91.648-134.144-18.944 0-39.424 9.216-51.2 24.064-12.288 15.36-15.872 34.816-15.872 53.76 0 48.64 28.16 129.536 91.136 129.536 18.432 0 37.888-8.704 49.664-20.48 16.384-16.384 17.92-39.424 17.92-52.736z" fill="#DB2626" p-id="2283"></path><path d="M1024 512C1024 229.376 794.624 0 512 0S0 229.376 0 512s229.376 512 512 512 512-229.376 512-512z m-354.304-98.304h39.424v78.848h78.848v39.424h-78.848v78.848h-39.424v-78.848h-78.848v-39.424h78.848V413.696zM236.544 706.56c0-26.112 13.312-63.488 55.808-88.576 45.056-27.648 106.496-31.232 138.752-33.28-10.24-13.312-22.016-27.136-22.016-49.664 0-12.288 3.584-19.456 7.168-28.16-8.192 0.512-15.872 1.536-23.552 1.536-77.312 0-120.832-57.344-120.832-114.176 0-33.28 15.36-70.656 46.592-97.28 41.472-34.304 91.136-39.936 130.048-39.936h150.016l-46.592 26.112H506.88c16.896 13.824 51.712 43.008 51.712 98.304 0 53.76-30.72 79.36-60.928 103.424-9.216 9.216-20.48 19.456-20.48 35.84s10.752 24.576 18.944 31.232l26.112 20.48c32.256 27.136 60.928 51.712 60.928 101.888 0 68.608-66.048 137.728-191.488 137.728-104.448-1.536-155.136-51.712-155.136-105.472z" fill="#DB2626" p-id="2284"></path><path d="M456.192 605.184c-5.632-0.512-9.216-0.512-16.896-0.512-6.656 0-46.08 1.536-76.288 11.776-15.872 5.632-62.464 23.04-62.464 74.752s50.176 88.576 128 88.576c69.632 0 107.008-33.28 107.008-78.336 0-37.376-24.064-56.832-79.36-96.256z" fill="#DB2626" p-id="2285"></path></svg>